# PREDICTIONS ONLY: no wall cuts; source building not modified.
# Local meters; world XYZ = OBJ xyz + origin below.
# origin_world_m 690965.576500000 5335894.223500000 523.818000000
mtllib predictions_preview.mtl
g P0001_window
usemtl window
v 2.013252123 8.220027261 -5.134814481
v 0.801177982 8.684243035 -5.136957243
v 0.805195683 8.682725949 -7.044227844
v 2.015717141 8.219104809 -7.038992192
f 1 2 3 4
g P0002_window
usemtl window
v 8.560895215 5.712326457 -5.115768483
v 7.343820885 6.178457266 -5.117907765
v 7.339467276 6.180146392 -7.030353650
v 8.554992064 5.714609010 -7.025072702
f 5 6 7 8
g P0003_window
usemtl window
v 4.961775229 7.090726052 -1.798716875
v 3.777825081 7.544170476 -1.795492712
v 3.778045779 7.544108300 -3.763027209
v 4.960440999 7.091259368 -3.763115419
f 9 10 11 12
g P0004_window
usemtl window
v 1.966848584 8.237761401 -1.782009009
v 0.719735551 8.715396755 -1.778598518
v 0.724005285 8.713783972 -3.758786587
v 1.969463294 8.236782442 -3.758886202
f 13 14 15 16
g P0005_window
usemtl window
v -1.271212762 9.477953941 -5.140180640
v -2.455736552 9.931618124 -5.142274001
v -2.447535961 9.928499079 -7.054552900
v -1.264540179 9.475420077 -7.049442212
f 17 18 19 20
g P0006_window
usemtl window
v -1.272179700 9.478286279 -1.795699758
v -2.507691984 9.951478631 -1.792358241
v -2.499035287 9.948185975 -3.799237360
v -1.265191885 9.475632755 -3.799268997
f 21 22 23 24
g P0007_window
usemtl window
v 5.014230361 7.070673390 -5.080440864
v 3.781351479 7.542857230 -5.082538834
v 3.781569512 7.542796229 -7.063682137
v 5.012814533 7.071238110 -7.058303271
f 25 26 27 28
g P0008_window
usemtl window
v 8.651712992 5.677468485 1.522772570
v 7.394097127 6.159126285 1.531874737
v 7.389441100 6.160932508 -0.492576506
v 8.645369757 5.679920857 -0.498226975
f 29 30 31 32
g P0009_window
usemtl window
v 1.972625167 8.235477857 4.481714464
v 0.712840570 8.717966211 4.495756380
v 0.716410479 8.716617807 2.836731065
v 1.974800248 8.234663631 2.825503480
f 33 34 35 36
g P0010_window
usemtl window
v -1.215433928 9.456482012 4.458239271
v -2.480704229 9.941071351 4.472242494
v -2.473711806 9.938411872 2.837567453
v -1.209827705 9.454353406 2.826337458
f 37 38 39 40
g P0011_window
usemtl window
v 5.046846226 7.058073390 4.458430852
v 3.776293623 7.544685811 4.472611608
v 3.776479485 7.544633358 2.823748201
v 5.045639681 7.058554186 2.812400056
f 41 42 43 44
g P0012_window
usemtl window
v 8.617272410 5.690625832 4.441113028
v 7.398003173 6.157597096 4.454758630
v 7.394211130 6.159068165 2.804624899
v 8.612149589 5.692606550 2.793712962
f 45 46 47 48
g P0013_window
usemtl window
v 8.606596573 5.694785414 -1.792698930
v 7.379551696 6.164734810 -1.789330903
v 7.374946188 6.166521479 -3.795844114
v 8.600355734 5.697198366 -3.795881579
f 49 50 51 52
g P0014_window
usemtl window
v 1.995108161 8.226900679 1.519654653
v 0.698787814 8.723382018 1.528947650
v 0.703161597 8.721729834 -0.490863821
v 1.997731131 8.225919005 -0.496638901
f 53 54 55 56
g P0015_window
usemtl window
v 5.046158385 7.058370245 1.516737444
v 3.778768480 7.543771432 1.525855440
v 3.778991460 7.543708792 -0.477709603
v 5.044690319 7.058955223 -0.483401682
f 57 58 59 60
g P0016_window
usemtl window
v -1.200666000 9.450859025 1.551032272
v -2.520539744 9.956361145 1.560509063
v -2.511458427 9.952906987 -0.545335306
v -1.193451074 9.448119639 -0.551093878
f 61 62 63 64
