# PREDICTIONS ONLY: no wall cuts; source building not modified.
# Local meters; world XYZ = OBJ xyz + origin below.
# origin_world_m 690848.229500000 5335941.198000001 525.664500000
mtllib predictions_preview.mtl
g P0001_window
usemtl window
v -5.778673995 8.728024947 -7.212818772
v -7.012583896 9.207824981 -7.219913672
v -7.010692675 9.207121791 -8.996698745
v -5.778092860 8.727831176 -8.989490717
f 1 2 3 4
g P0002_window
usemtl window
v -5.828108972 8.747185741 -3.805272429
v -6.950871402 9.183766603 -3.811517424
v -6.948801166 9.182998191 -5.830388885
v -5.827390485 8.746942948 -5.824026675
f 5 6 7 8
g P0003_window
usemtl window
v 5.872113902 4.197672300 -7.210589835
v 4.680479321 4.661033777 -7.217445911
v 4.670148517 4.665082473 -8.961722925
v 5.860541844 4.202203651 -8.954759525
f 9 10 11 12
g P0004_window
usemtl window
v -3.863388781 7.983275220 -7.195058371
v -5.107089147 8.466882230 -7.202209104
v -5.107221594 8.466966080 -8.987050413
v -3.864847543 7.983874798 -8.979785125
f 13 14 15 16
g P0005_window
usemtl window
v -3.894667345 7.995262980 2.447362668
v -5.022245610 8.433716448 2.441478719
v -5.022441880 8.433821411 0.861056443
v -3.895922275 7.995779594 0.867032967
f 17 18 19 20
g P0006_window
usemtl window
v -2.007795816 7.261675517 -3.810625602
v -3.142856276 7.703038409 -3.816940665
v -3.145353956 7.704045969 -5.822485607
v -2.011650749 7.263210836 -5.816052802
f 21 22 23 24
g P0007_window
usemtl window
v -0.081045483 6.512529186 -7.189049763
v -1.274182195 6.976474758 -7.195910812
v -1.278368283 6.978134586 -8.966302917
v -0.086493396 6.514679665 -8.959332835
f 25 26 27 28
g P0008_window
usemtl window
v -5.840035297 8.751765084 -0.596801506
v -6.951179204 9.183828134 -0.602785444
v -6.949241595 9.183109011 -2.495596625
v -5.839349524 8.751532728 -2.489503684
f 29 30 31 32
g P0009_window
usemtl window
v -1.987355615 7.253614439 2.424518643
v -3.100934378 7.686624268 2.418705733
v -3.102898791 7.687416250 0.866645079
v -1.990346687 7.254805630 0.872547784
f 33 34 35 36
g P0010_window
usemtl window
v -3.927375478 8.008094828 -3.812271894
v -5.044668060 8.442548765 -3.818487547
v -5.044890267 8.442671360 -5.815308725
v -3.928928022 8.008734715 -5.808977689
f 37 38 39 40
g P0011_window
usemtl window
v -5.840092410 8.751732570 2.422522269
v -6.957699278 9.186308709 2.416689448
v -6.956112801 9.185719848 0.869969497
v -5.839532980 8.751543069 0.875892108
f 41 42 43 44
g P0012_window
usemtl window
v 5.734339702 4.251184024 -3.838876000
v 4.719879047 4.645652253 -3.844524079
v 4.708131123 4.650256256 -5.824199425
v 5.721394871 4.256253437 -5.818447427
f 45 46 47 48
g P0013_window
usemtl window
v 7.769912975 3.459722215 -7.206139932
v 6.587182687 3.919621300 -7.212945198
v 6.574854271 3.924446785 -8.958685108
v 7.756351679 3.465027099 -8.951773219
f 49 50 51 52
g P0014_window
usemtl window
v 7.644789416 3.508314715 -3.829781232
v 6.662348458 3.890332236 -3.835251123
v 6.648404723 3.895789821 -5.801206439
v 7.629694713 3.514219846 -5.795636594
f 53 54 55 56
g P0015_window
usemtl window
v -3.928672280 8.008541001 -0.607535517
v -5.032027427 8.437575429 -0.613478789
v -5.032247831 8.437694815 -2.471982641
v -3.930113092 8.009134935 -2.465933080
f 57 58 59 60
g P0016_window
usemtl window
v 11.443681312 2.031133726 -3.817554218
v 10.553096123 2.377433565 -3.822513126
v 10.534509465 2.384696686 -5.797144542
v 11.424046922 2.038804251 -5.792094606
f 61 62 63 64
g P0017_window
usemtl window
v 9.513197646 2.781793027 -3.820378732
v 8.584835649 3.142782200 -3.825547580
v 8.568674217 3.149102046 -5.787124249
v 9.495951141 2.788534798 -5.781861148
f 65 66 67 68
g P0018_window
usemtl window
v 2.755948543 5.409258525 -0.610172470
v 1.691703989 5.823084984 -0.615907338
v 1.684065644 5.826088714 -2.469643429
v 2.747136499 5.412718642 -2.463806264
f 69 70 71 72
g P0019_window
usemtl window
v 2.766149354 5.405350469 -3.836844724
v 1.722011534 5.811358523 -3.842656965
v 1.713775426 5.814597093 -5.828928696
v 2.756677018 5.409069738 -5.823009158
f 73 74 75 76
g P0020_window
usemtl window
v -0.135067191 6.533474277 -3.823933691
v -1.214422668 6.953176551 -3.829940243
v -1.219200640 6.955070592 -5.824594698
v -0.141128675 6.535867405 -5.818476779
f 77 78 79 80
g P0021_window
usemtl window
v 5.721964750 4.255937674 -0.622692320
v 4.715869161 4.647153184 -0.628115424
v 4.705068028 4.651386216 -2.452470741
v 5.710071805 4.260595252 -2.446952446
f 81 82 83 84
g P0022_window
usemtl window
v -0.148951115 6.538814912 -0.620324513
v -1.206810921 6.950158692 -0.626024655
v -1.211213610 6.951903968 -2.464039280
v -0.154510760 6.541010063 -2.458238334
f 85 86 87 88
g P0023_window
usemtl window
v 11.744937125 1.914052713 -7.175234346
v 10.427621114 2.426284819 -7.182813415
v 10.410702396 2.432896352 -8.991016517
v 11.726596438 1.921217170 -8.983314418
f 89 90 91 92
g P0024_window
usemtl window
v -1.900267520 7.219924694 -7.178253716
v -3.213612879 7.730612830 -7.185804477
v -3.215788427 7.731491487 -8.990317961
v -1.903858925 7.221353897 -8.982644883
f 93 94 95 96
g P0025_window
usemtl window
v 9.562571910 2.762535586 -0.592735112
v 8.612581495 3.131934864 -0.597855309
v 8.597365363 3.137885052 -2.444543325
v 9.546312470 2.768891458 -2.439332124
f 97 98 99 100
g P0026_window
usemtl window
v 7.636592164 3.511443994 -0.619523372
v 6.662062125 3.890385388 -0.624776713
v 6.648995352 3.895499795 -2.470659005
v 7.622455469 3.516974432 -2.465312362
f 101 102 103 104
g P0027_window
usemtl window
v 11.539351657 1.993874279 -0.590011183
v 10.574421948 2.369082630 -0.595212321
v 10.557047858 2.375871933 -2.442078617
v 11.520917868 2.001075639 -2.436785025
f 105 106 107 108
g P0028_window
usemtl window
v -2.008618765 7.261937482 -0.608496793
v -3.116112780 7.692581289 -0.614463049
v -3.118443976 7.693521324 -2.466189688
v -2.012170353 7.263352058 -2.460117121
f 109 110 111 112
g P0029_window
usemtl window
v 5.722676738 4.255606791 2.358461978
v 4.683876464 4.659539360 2.353033326
v 4.675243830 4.662922676 0.887646093
v 5.713140217 4.259341578 0.893153867
f 113 114 115 116
g P0030_window
usemtl window
v -0.048288038 6.499616567 2.469136760
v -1.203703659 6.948894461 2.463107657
v -1.207573111 6.950428387 0.845985367
v -0.053267227 6.501582008 0.852111552
f 117 118 119 120
g P0031_window
usemtl window
v 2.766571389 5.405074115 2.356519444
v 1.701654782 5.819161895 2.350955103
v 1.695637712 5.821528078 0.890204407
v 2.759630488 5.407799523 0.895849589
f 121 122 123 124
g P0032_window
usemtl window
v 7.648967802 3.506578325 2.330232731
v 6.651826827 3.894311872 2.325019680
v 6.641737099 3.898261115 0.895958366
v 7.638032020 3.510856550 0.901245492
f 125 126 127 128
g P0033_window
usemtl window
v 9.557854498 2.764490522 -7.246520459
v 8.533364548 3.162858598 -7.252418095
v 8.519524282 3.168270815 -8.935101506
v 9.542984953 2.770302967 -8.929114837
f 129 130 131 132
g P0034_window
usemtl window
v 9.538166211 2.771972698 2.327453253
v 8.634649482 3.123300901 2.322729038
v 8.622914216 3.127889919 0.898287116
v 9.525666886 2.776858816 0.903078240
f 133 134 135 136
g P0035_window
usemtl window
v 11.490352690 2.012874132 2.343044306
v 10.608212598 2.355890130 2.338432125
v 10.594789364 2.361135541 0.912099847
v 11.476182572 2.018409963 0.916777448
f 137 138 139 140
