# PREDICTIONS ONLY: no wall cuts; source building not modified.
# Local meters; world XYZ = OBJ xyz + origin below.
# origin_world_m 690927.533500000 5335908.736000000 523.715000000
mtllib predictions_preview.mtl
g P0001_window
usemtl window
v 8.372439769 5.712656862 1.529655179
v 7.112594721 6.189450552 1.524810597
v 7.117146992 6.187727726 -0.408817225
v 8.379066676 5.710148882 -0.405634281
f 1 2 3 4
g P0002_window
usemtl window
v 8.332446608 5.727792444 4.602518011
v 7.119747634 6.186743502 4.595306927
v 7.123856713 6.185188403 2.858961665
v 8.338353576 5.725556927 2.864740513
f 5 6 7 8
g P0003_window
usemtl window
v 4.242393500 7.275690350 4.589865476
v 3.011611526 7.741484995 4.582537019
v 3.009725015 7.742198953 2.915385394
v 4.242254056 7.275743122 2.921314317
f 9 10 11 12
g P0004_window
usemtl window
v -1.574190210 9.477001067 -1.824899039
v -2.825966128 9.950740960 -1.826855136
v -2.838101264 9.955333553 -3.826340720
v -1.584214349 9.480794745 -3.826108548
f 13 14 15 16
g P0005_window
usemtl window
v 4.278698868 7.261950429 1.526305951
v 3.031718442 7.733875448 1.521500245
v 3.029571190 7.734688085 -0.410247624
v 4.278597325 7.261988859 -0.407089591
f 17 18 19 20
g P0006_window
usemtl window
v 2.541533396 7.919388053 4.580385498
v 1.292050807 8.392260025 4.572945136
v 1.287663720 8.393920338 2.882844682
v 2.538942217 7.920368696 2.888842946
f 21 22 23 24
g P0007_window
usemtl window
v 8.386939624 5.707169331 -5.297790360
v 7.109420110 6.190651997 -5.296739972
v 7.114186768 6.188848034 -7.335496228
v 8.393911647 5.704530739 -7.338333642
f 25 26 27 28
g P0008_window
usemtl window
v -1.605971093 9.489028676 1.474752469
v -2.851461840 9.960389921 1.469977258
v -2.863248813 9.964850750 -0.459853944
v -1.615725207 9.492720162 -0.456729540
f 29 30 31 32
g P0009_window
usemtl window
v 2.563345167 7.911133296 1.511319823
v 1.278303396 8.397462792 1.506374820
v 1.273369008 8.399330231 -0.390977563
v 2.560478921 7.912218039 -0.387702274
f 33 34 35 36
g P0010_window
usemtl window
v -1.567138159 9.474332188 -5.321325067
v -2.837826126 9.955229427 -5.320252553
v -2.850233171 9.959924925 -7.367200513
v -1.577357909 9.478199896 -7.370069916
f 37 38 39 40
g P0011_window
usemtl window
v 2.590749553 7.900761990 -1.781148319
v 1.356606769 8.367828549 -1.783108409
v 1.351490989 8.369764637 -3.807468831
v 2.587747091 7.901898284 -3.807224556
f 41 42 43 44
g P0012_ambiguous
usemtl ambiguous
v 8.371089821 5.713167756 -1.762283914
v 7.096028972 6.195719929 -1.764317432
v 7.100789118 6.193918432 -3.804080237
v 8.378058738 5.710530340 -3.803825889
f 45 46 47 48
g P0013_window
usemtl window
v 4.263507145 7.267699800 -1.789432762
v 3.058186515 7.723858493 -1.791338035
v 3.056009142 7.724682529 -3.796240756
v 4.263376239 7.267749343 -3.795993167
f 49 50 51 52
g P0014_window
usemtl window
v -1.590860260 9.483309918 4.603859883
v -2.790868338 9.937458052 4.596674413
v -2.801426624 9.941453881 2.857951931
v -1.599649165 9.486636116 2.863708520
f 53 54 55 56
g P0015_window
usemtl window
v 4.282472353 7.260522338 -5.305461418
v 3.035138611 7.732581071 -5.304426404
v 3.032881076 7.733435445 -7.352515230
v 4.282371846 7.260560375 -7.355307958
f 57 58 59 60
g P0016_window
usemtl window
v 2.582214690 7.903992045 -5.309581625
v 1.286486973 8.394365682 -5.308501535
v 1.281206710 8.396364020 -7.356071378
v 2.579171947 7.905143584 -7.358979112
f 61 62 63 64
